<svg width="701" height="527" viewBox="0 0 701 527" fill="none" xmlns="http://www.w3.org/2000/svg">
<rect x="57" y="102" width="412" height="51" fill="white" fill-opacity="0.79"/>
<rect x="65" y="174" width="525" height="51" fill="white" fill-opacity="0.79"/>
<rect x="65" y="329" width="477" height="51" fill="white" fill-opacity="0.79"/>
<rect x="65" y="406" width="559" height="48" fill="white" fill-opacity="0.79"/>
<g filter="url(#filter0_bd_361_1896)">
<rect x="23" y="19" width="655" height="481" rx="20" fill="url(#paint0_linear_361_1896)" shape-rendering="crispEdges"/>
<rect x="23.5" y="19.5" width="654" height="480" rx="19.5" stroke="url(#paint1_linear_361_1896)" shape-rendering="crispEdges"/>
</g>
<g filter="url(#filter1_d_361_1896)">
<rect x="71" y="228" width="559" height="94" rx="10" fill="white"/>
</g>
<rect x="102.5" y="246.5" width="446" height="61" rx="9.5" stroke="#181818" stroke-dasharray="6 6"/>
<path d="M577.875 291.25C577.119 291.25 576.471 290.981 575.932 290.442C575.393 289.903 575.124 289.255 575.125 288.5V269.25H577.875V288.5H593V291.25H577.875ZM583.375 285.75C582.619 285.75 581.971 285.481 581.432 284.942C580.893 284.403 580.624 283.755 580.625 283V266.5C580.625 265.744 580.895 265.096 581.434 264.557C581.973 264.018 582.62 263.749 583.375 263.75H595.75C596.506 263.75 597.154 264.02 597.693 264.559C598.232 265.098 598.501 265.745 598.5 266.5V283C598.5 283.756 598.231 284.404 597.692 284.943C597.153 285.482 596.505 285.751 595.75 285.75H583.375ZM583.375 283H595.75V266.5H583.375V283Z" fill="black"/>
<path d="M132.472 283V271.32H134.008V278.296H133.624C133.624 277.453 133.731 276.728 133.944 276.12C134.168 275.501 134.509 275.027 134.968 274.696C135.427 274.365 136.013 274.2 136.728 274.2H136.792C137.816 274.2 138.589 274.541 139.112 275.224C139.635 275.896 139.896 276.861 139.896 278.12V283H138.36V277.8C138.36 277.107 138.163 276.568 137.768 276.184C137.384 275.8 136.883 275.608 136.264 275.608C135.581 275.608 135.032 275.837 134.616 276.296C134.211 276.744 134.008 277.336 134.008 278.072V283H132.472ZM146.034 283.096C145.394 283.096 144.84 283.005 144.37 282.824C143.912 282.643 143.554 282.333 143.298 281.896C143.053 281.448 142.93 280.845 142.93 280.088V271.864H144.402V280.28C144.402 280.739 144.525 281.096 144.77 281.352C145.026 281.597 145.384 281.72 145.842 281.72H147.346V283.096H146.034ZM141.458 275.608V274.456H147.346V275.608H141.458ZM152.847 283.096C152.207 283.096 151.652 283.005 151.183 282.824C150.724 282.643 150.367 282.333 150.111 281.896C149.866 281.448 149.743 280.845 149.743 280.088V271.864H151.215V280.28C151.215 280.739 151.338 281.096 151.583 281.352C151.839 281.597 152.196 281.72 152.655 281.72H154.159V283.096H152.847ZM148.271 275.608V274.456H154.159V275.608H148.271ZM156.331 286.2V274.456H157.547V278.152L157.259 278.12C157.313 277.203 157.505 276.456 157.835 275.88C158.177 275.293 158.619 274.861 159.163 274.584C159.707 274.307 160.299 274.168 160.939 274.168C161.558 274.168 162.118 274.285 162.619 274.52C163.131 274.755 163.569 275.075 163.931 275.48C164.294 275.885 164.571 276.355 164.763 276.888C164.955 277.421 165.051 277.987 165.051 278.584V278.872C165.051 279.469 164.95 280.035 164.747 280.568C164.545 281.101 164.257 281.571 163.883 281.976C163.521 282.381 163.083 282.701 162.571 282.936C162.07 283.171 161.515 283.288 160.907 283.288C160.299 283.288 159.718 283.155 159.163 282.888C158.609 282.621 158.15 282.189 157.787 281.592C157.425 280.995 157.217 280.211 157.163 279.24L157.867 280.52V286.2H156.331ZM160.667 281.944C161.243 281.944 161.745 281.811 162.171 281.544C162.598 281.267 162.929 280.888 163.163 280.408C163.398 279.917 163.515 279.357 163.515 278.728C163.515 278.088 163.398 277.528 163.163 277.048C162.929 276.568 162.598 276.195 162.171 275.928C161.745 275.651 161.243 275.512 160.667 275.512C160.155 275.512 159.681 275.629 159.243 275.864C158.806 276.088 158.454 276.419 158.187 276.856C157.931 277.283 157.803 277.8 157.803 278.408V279.144C157.803 279.731 157.937 280.232 158.203 280.648C158.47 281.064 158.822 281.384 159.259 281.608C159.697 281.832 160.166 281.944 160.667 281.944ZM167.059 283V281.048H168.915V283H167.059ZM167.059 277.08V275.128H168.915V277.08H167.059ZM170.478 283.96L173.742 270.52H175.182L171.918 283.96H170.478ZM175.978 283.96L179.242 270.52H180.682L177.418 283.96H175.978ZM185.046 283L186.774 274.744H188.854L190.87 283H189.558L187.542 274.776H188.054L186.31 283H185.046ZM184.262 283V281.784H186.038V283H184.262ZM183.91 283L181.494 274.456H182.966L185.318 283H183.91ZM189.878 283V281.784H191.654V283H189.878ZM190.598 283L192.646 274.456H194.038L191.942 283H190.598ZM198.609 283L200.337 274.744H202.417L204.433 283H203.121L201.105 274.776H201.617L199.873 283H198.609ZM197.825 283V281.784H199.601V283H197.825ZM197.473 283L195.057 274.456H196.529L198.881 283H197.473ZM203.441 283V281.784H205.217V283H203.441ZM204.161 283L206.209 274.456H207.601L205.505 283H204.161ZM212.171 283L213.899 274.744H215.979L217.995 283H216.683L214.667 274.776H215.179L213.435 283H212.171ZM211.387 283V281.784H213.163V283H211.387ZM211.035 283L208.619 274.456H210.091L212.443 283H211.035ZM217.003 283V281.784H218.779V283H217.003ZM217.723 283L219.771 274.456H221.163L219.067 283H217.723ZM222.324 283V281.048H224.18V283H222.324ZM231.328 283.288C230.624 283.288 229.994 283.133 229.44 282.824C228.896 282.515 228.464 282.067 228.144 281.48C227.824 280.883 227.648 280.168 227.616 279.336H228.032V283H226.816V271.32H228.352V277L227.808 278.168C227.85 277.24 228.037 276.483 228.368 275.896C228.698 275.309 229.13 274.877 229.664 274.6C230.208 274.312 230.805 274.168 231.456 274.168C232.064 274.168 232.618 274.285 233.12 274.52C233.621 274.744 234.053 275.059 234.416 275.464C234.778 275.859 235.056 276.323 235.248 276.856C235.44 277.379 235.536 277.944 235.536 278.552V278.84C235.536 279.448 235.434 280.019 235.232 280.552C235.04 281.085 234.757 281.56 234.384 281.976C234.01 282.381 233.562 282.701 233.04 282.936C232.528 283.171 231.957 283.288 231.328 283.288ZM231.152 281.944C231.728 281.944 232.229 281.805 232.656 281.528C233.082 281.251 233.413 280.872 233.648 280.392C233.882 279.901 234 279.336 234 278.696C234 278.056 233.877 277.496 233.632 277.016C233.397 276.536 233.066 276.168 232.64 275.912C232.213 275.645 231.717 275.512 231.152 275.512C230.64 275.512 230.165 275.629 229.728 275.864C229.29 276.088 228.938 276.419 228.672 276.856C228.416 277.283 228.288 277.8 228.288 278.408V279.144C228.288 279.731 228.421 280.232 228.688 280.648C228.954 281.064 229.306 281.384 229.744 281.608C230.181 281.832 230.65 281.944 231.152 281.944ZM237.943 283V271.32H239.479V283H237.943ZM236.759 272.536V271.32H239.479V272.536H236.759ZM245.385 283.256C244.372 283.256 243.593 282.925 243.049 282.264C242.505 281.603 242.233 280.648 242.233 279.4V274.44H243.769V279.704C243.769 280.376 243.95 280.904 244.313 281.288C244.676 281.661 245.166 281.848 245.785 281.848C246.425 281.848 246.948 281.645 247.353 281.24C247.758 280.824 247.961 280.259 247.961 279.544V274.44H249.497V283H248.281V279.336H248.473C248.473 280.179 248.361 280.893 248.137 281.48C247.913 282.056 247.577 282.499 247.129 282.808C246.692 283.107 246.132 283.256 245.449 283.256H245.385ZM252.472 286.2V274.456H253.688V278.152L253.4 278.12C253.453 277.203 253.645 276.456 253.976 275.88C254.317 275.293 254.76 274.861 255.304 274.584C255.848 274.307 256.44 274.168 257.08 274.168C257.699 274.168 258.259 274.285 258.76 274.52C259.272 274.755 259.709 275.075 260.072 275.48C260.435 275.885 260.712 276.355 260.904 276.888C261.096 277.421 261.192 277.987 261.192 278.584V278.872C261.192 279.469 261.091 280.035 260.888 280.568C260.685 281.101 260.397 281.571 260.024 281.976C259.661 282.381 259.224 282.701 258.712 282.936C258.211 283.171 257.656 283.288 257.048 283.288C256.44 283.288 255.859 283.155 255.304 282.888C254.749 282.621 254.291 282.189 253.928 281.592C253.565 280.995 253.357 280.211 253.304 279.24L254.008 280.52V286.2H252.472ZM256.808 281.944C257.384 281.944 257.885 281.811 258.312 281.544C258.739 281.267 259.069 280.888 259.304 280.408C259.539 279.917 259.656 279.357 259.656 278.728C259.656 278.088 259.539 277.528 259.304 277.048C259.069 276.568 258.739 276.195 258.312 275.928C257.885 275.651 257.384 275.512 256.808 275.512C256.296 275.512 255.821 275.629 255.384 275.864C254.947 276.088 254.595 276.419 254.328 276.856C254.072 277.283 253.944 277.8 253.944 278.408V279.144C253.944 279.731 254.077 280.232 254.344 280.648C254.611 281.064 254.963 281.384 255.4 281.608C255.837 281.832 256.307 281.944 256.808 281.944ZM268.671 283V280.44H268.415V277.48C268.415 276.893 268.261 276.451 267.951 276.152C267.653 275.853 267.21 275.704 266.623 275.704C266.293 275.704 265.951 275.709 265.599 275.72C265.247 275.731 264.911 275.741 264.591 275.752C264.271 275.763 263.994 275.779 263.759 275.8V274.456C263.994 274.435 264.239 274.419 264.495 274.408C264.762 274.387 265.034 274.376 265.311 274.376C265.589 274.365 265.855 274.36 266.111 274.36C266.986 274.36 267.701 274.467 268.255 274.68C268.81 274.883 269.221 275.219 269.487 275.688C269.754 276.157 269.887 276.792 269.887 277.592V283H268.671ZM265.871 283.224C265.231 283.224 264.677 283.117 264.207 282.904C263.749 282.68 263.391 282.36 263.135 281.944C262.89 281.528 262.767 281.027 262.767 280.44C262.767 279.832 262.901 279.325 263.167 278.92C263.445 278.515 263.845 278.211 264.367 278.008C264.89 277.795 265.519 277.688 266.255 277.688H268.575V278.84H266.191C265.573 278.84 265.098 278.989 264.767 279.288C264.437 279.587 264.271 279.971 264.271 280.44C264.271 280.909 264.437 281.288 264.767 281.576C265.098 281.864 265.573 282.008 266.191 282.008C266.554 282.008 266.901 281.944 267.231 281.816C267.562 281.677 267.834 281.453 268.047 281.144C268.271 280.824 268.394 280.387 268.415 279.832L268.831 280.44C268.778 281.048 268.629 281.56 268.383 281.976C268.149 282.381 267.818 282.691 267.391 282.904C266.975 283.117 266.469 283.224 265.871 283.224ZM272.099 286.328V284.952H273.331C273.694 284.952 273.998 284.904 274.243 284.808C274.499 284.723 274.707 284.573 274.867 284.36C275.038 284.147 275.176 283.864 275.283 283.512L277.971 274.456H279.475L276.627 283.912C276.456 284.477 276.216 284.936 275.907 285.288C275.598 285.651 275.219 285.912 274.771 286.072C274.334 286.243 273.822 286.328 273.235 286.328H272.099ZM274.707 282.808V281.528H276.563V282.808H274.707ZM274.547 282.808L271.491 274.456H273.059L275.987 282.808H274.547ZM280.512 283V281.048H282.368V283H280.512ZM285.227 283V273.928C285.227 272.979 285.478 272.28 285.979 271.832C286.481 271.384 287.217 271.16 288.187 271.16H289.147V272.44H287.931C287.537 272.44 287.233 272.552 287.019 272.776C286.806 272.989 286.699 273.288 286.699 273.672V283H285.227ZM284.043 275.608V274.456H288.987V275.608H284.043ZM291.099 283V274.456H292.635V283H291.099ZM289.851 275.672V274.456H292.635V275.672H289.851ZM291.531 273.08C291.19 273.08 290.934 272.989 290.763 272.808C290.603 272.627 290.523 272.397 290.523 272.12C290.523 271.843 290.603 271.613 290.763 271.432C290.934 271.251 291.19 271.16 291.531 271.16C291.873 271.16 292.123 271.251 292.283 271.432C292.454 271.613 292.539 271.843 292.539 272.12C292.539 272.397 292.454 272.627 292.283 272.808C292.123 272.989 291.873 273.08 291.531 273.08ZM295.613 283V274.456H296.829V278.12H296.637C296.637 277.277 296.749 276.568 296.973 275.992C297.207 275.405 297.559 274.963 298.029 274.664C298.498 274.355 299.09 274.2 299.805 274.2H299.869C300.946 274.2 301.741 274.536 302.253 275.208C302.775 275.88 303.037 276.851 303.037 278.12V283H301.501V277.8C301.501 277.139 301.314 276.611 300.941 276.216C300.567 275.811 300.055 275.608 299.405 275.608C298.733 275.608 298.189 275.816 297.773 276.232C297.357 276.648 297.149 277.203 297.149 277.896V283H295.613ZM311.015 283V280.44H310.759V277.48C310.759 276.893 310.604 276.451 310.295 276.152C309.996 275.853 309.554 275.704 308.967 275.704C308.636 275.704 308.295 275.709 307.943 275.72C307.591 275.731 307.255 275.741 306.935 275.752C306.615 275.763 306.338 275.779 306.103 275.8V274.456C306.338 274.435 306.583 274.419 306.839 274.408C307.106 274.387 307.378 274.376 307.655 274.376C307.932 274.365 308.199 274.36 308.455 274.36C309.33 274.36 310.044 274.467 310.599 274.68C311.154 274.883 311.564 275.219 311.831 275.688C312.098 276.157 312.231 276.792 312.231 277.592V283H311.015ZM308.215 283.224C307.575 283.224 307.02 283.117 306.551 282.904C306.092 282.68 305.735 282.36 305.479 281.944C305.234 281.528 305.111 281.027 305.111 280.44C305.111 279.832 305.244 279.325 305.511 278.92C305.788 278.515 306.188 278.211 306.711 278.008C307.234 277.795 307.863 277.688 308.599 277.688H310.919V278.84H308.535C307.916 278.84 307.442 278.989 307.111 279.288C306.78 279.587 306.615 279.971 306.615 280.44C306.615 280.909 306.78 281.288 307.111 281.576C307.442 281.864 307.916 282.008 308.535 282.008C308.898 282.008 309.244 281.944 309.575 281.816C309.906 281.677 310.178 281.453 310.391 281.144C310.615 280.824 310.738 280.387 310.759 279.832L311.175 280.44C311.122 281.048 310.972 281.56 310.727 281.976C310.492 282.381 310.162 282.691 309.735 282.904C309.319 283.117 308.812 283.224 308.215 283.224ZM315.05 283V274.456H316.266V278.12H316.074C316.074 277.277 316.186 276.568 316.41 275.992C316.645 275.405 316.997 274.963 317.466 274.664C317.935 274.355 318.527 274.2 319.242 274.2H319.306C320.383 274.2 321.178 274.536 321.69 275.208C322.213 275.88 322.474 276.851 322.474 278.12V283H320.938V277.8C320.938 277.139 320.751 276.611 320.378 276.216C320.005 275.811 319.493 275.608 318.842 275.608C318.17 275.608 317.626 275.816 317.21 276.232C316.794 276.648 316.586 277.203 316.586 277.896V283H315.05ZM328.949 283.288C328.213 283.288 327.573 283.16 327.029 282.904C326.495 282.648 326.053 282.307 325.701 281.88C325.349 281.443 325.082 280.963 324.901 280.44C324.73 279.917 324.645 279.395 324.645 278.872V278.584C324.645 278.04 324.73 277.507 324.901 276.984C325.082 276.461 325.349 275.992 325.701 275.576C326.063 275.149 326.511 274.808 327.045 274.552C327.578 274.296 328.202 274.168 328.917 274.168C329.631 274.168 330.271 274.301 330.837 274.568C331.413 274.835 331.871 275.213 332.213 275.704C332.565 276.184 332.762 276.755 332.805 277.416H331.333C331.258 276.883 331.013 276.44 330.597 276.088C330.181 275.725 329.621 275.544 328.917 275.544C328.309 275.544 327.802 275.683 327.397 275.96C326.991 276.237 326.687 276.616 326.485 277.096C326.282 277.576 326.181 278.12 326.181 278.728C326.181 279.315 326.282 279.853 326.485 280.344C326.687 280.824 326.991 281.208 327.397 281.496C327.813 281.773 328.33 281.912 328.949 281.912C329.429 281.912 329.845 281.827 330.197 281.656C330.549 281.485 330.831 281.256 331.045 280.968C331.258 280.68 331.386 280.355 331.429 279.992H332.901C332.869 280.664 332.671 281.245 332.309 281.736C331.957 282.227 331.487 282.611 330.901 282.888C330.325 283.155 329.674 283.288 328.949 283.288ZM338.62 283.288C337.873 283.288 337.228 283.16 336.684 282.904C336.14 282.648 335.697 282.312 335.356 281.896C335.014 281.469 334.758 280.995 334.588 280.472C334.428 279.949 334.348 279.416 334.348 278.872V278.584C334.348 278.029 334.428 277.491 334.588 276.968C334.758 276.445 335.014 275.976 335.356 275.56C335.697 275.133 336.129 274.797 336.652 274.552C337.185 274.296 337.809 274.168 338.524 274.168C339.452 274.168 340.214 274.371 340.812 274.776C341.42 275.171 341.868 275.683 342.156 276.312C342.454 276.941 342.604 277.613 342.604 278.328V279.016H335.02V277.864H341.484L341.132 278.488C341.132 277.88 341.036 277.357 340.844 276.92C340.652 276.472 340.364 276.125 339.98 275.88C339.596 275.635 339.11 275.512 338.524 275.512C337.916 275.512 337.409 275.651 337.004 275.928C336.609 276.205 336.31 276.584 336.108 277.064C335.916 277.544 335.82 278.099 335.82 278.728C335.82 279.336 335.916 279.885 336.108 280.376C336.31 280.856 336.62 281.24 337.036 281.528C337.452 281.805 337.98 281.944 338.62 281.944C339.292 281.944 339.836 281.795 340.252 281.496C340.678 281.197 340.934 280.851 341.02 280.456H342.46C342.342 281.043 342.108 281.549 341.756 281.976C341.404 282.403 340.961 282.728 340.428 282.952C339.894 283.176 339.292 283.288 338.62 283.288ZM343.713 283.96L346.977 270.52H348.417L345.153 283.96H343.713ZM350.285 286.2V274.456H351.501V278.152L351.213 278.12C351.266 277.203 351.458 276.456 351.789 275.88C352.13 275.293 352.573 274.861 353.117 274.584C353.661 274.307 354.253 274.168 354.893 274.168C355.511 274.168 356.071 274.285 356.573 274.52C357.085 274.755 357.522 275.075 357.885 275.48C358.247 275.885 358.525 276.355 358.717 276.888C358.909 277.421 359.005 277.987 359.005 278.584V278.872C359.005 279.469 358.903 280.035 358.701 280.568C358.498 281.101 358.21 281.571 357.837 281.976C357.474 282.381 357.037 282.701 356.525 282.936C356.023 283.171 355.469 283.288 354.861 283.288C354.253 283.288 353.671 283.155 353.117 282.888C352.562 282.621 352.103 282.189 351.741 281.592C351.378 280.995 351.17 280.211 351.117 279.24L351.821 280.52V286.2H350.285ZM354.621 281.944C355.197 281.944 355.698 281.811 356.125 281.544C356.551 281.267 356.882 280.888 357.117 280.408C357.351 279.917 357.469 279.357 357.469 278.728C357.469 278.088 357.351 277.528 357.117 277.048C356.882 276.568 356.551 276.195 356.125 275.928C355.698 275.651 355.197 275.512 354.621 275.512C354.109 275.512 353.634 275.629 353.197 275.864C352.759 276.088 352.407 276.419 352.141 276.856C351.885 277.283 351.757 277.8 351.757 278.408V279.144C351.757 279.731 351.89 280.232 352.157 280.648C352.423 281.064 352.775 281.384 353.213 281.608C353.65 281.832 354.119 281.944 354.621 281.944ZM366.484 283V280.44H366.228V277.48C366.228 276.893 366.073 276.451 365.764 276.152C365.465 275.853 365.022 275.704 364.436 275.704C364.105 275.704 363.764 275.709 363.412 275.72C363.06 275.731 362.724 275.741 362.404 275.752C362.084 275.763 361.806 275.779 361.572 275.8V274.456C361.806 274.435 362.052 274.419 362.308 274.408C362.574 274.387 362.846 274.376 363.124 274.376C363.401 274.365 363.668 274.36 363.924 274.36C364.798 274.36 365.513 274.467 366.068 274.68C366.622 274.883 367.033 275.219 367.3 275.688C367.566 276.157 367.7 276.792 367.7 277.592V283H366.484ZM363.684 283.224C363.044 283.224 362.489 283.117 362.02 282.904C361.561 282.68 361.204 282.36 360.948 281.944C360.702 281.528 360.58 281.027 360.58 280.44C360.58 279.832 360.713 279.325 360.98 278.92C361.257 278.515 361.657 278.211 362.18 278.008C362.702 277.795 363.332 277.688 364.068 277.688H366.388V278.84H364.004C363.385 278.84 362.91 278.989 362.58 279.288C362.249 279.587 362.084 279.971 362.084 280.44C362.084 280.909 362.249 281.288 362.58 281.576C362.91 281.864 363.385 282.008 364.004 282.008C364.366 282.008 364.713 281.944 365.044 281.816C365.374 281.677 365.646 281.453 365.86 281.144C366.084 280.824 366.206 280.387 366.228 279.832L366.644 280.44C366.59 281.048 366.441 281.56 366.196 281.976C365.961 282.381 365.63 282.691 365.204 282.904C364.788 283.117 364.281 283.224 363.684 283.224ZM369.912 286.328V284.952H371.144C371.506 284.952 371.81 284.904 372.056 284.808C372.312 284.723 372.52 284.573 372.68 284.36C372.85 284.147 372.989 283.864 373.096 283.512L375.784 274.456H377.288L374.44 283.912C374.269 284.477 374.029 284.936 373.72 285.288C373.41 285.651 373.032 285.912 372.584 286.072C372.146 286.243 371.634 286.328 371.048 286.328H369.912ZM372.52 282.808V281.528H374.376V282.808H372.52ZM372.36 282.808L369.304 274.456H370.872L373.8 282.808H372.36ZM378.166 283.96L381.43 270.52H382.87L379.606 283.96H378.166ZM383.714 283L387.922 271.32H390.578L394.914 283H393.298L389.378 272.344L390.146 272.728H388.258L389.074 272.344L385.282 283H383.714ZM386.226 279.512L386.754 278.104H391.794L392.322 279.512H386.226ZM400.031 283.288C399.274 283.288 398.586 283.128 397.967 282.808C397.349 282.488 396.858 282.013 396.495 281.384C396.143 280.755 395.967 279.971 395.967 279.032V278.632H397.535V279.32C397.535 280.12 397.77 280.744 398.239 281.192C398.709 281.629 399.306 281.848 400.031 281.848C400.757 281.848 401.354 281.629 401.823 281.192C402.293 280.744 402.527 280.12 402.527 279.32V272.408H404.095V279.032C404.095 279.971 403.914 280.755 403.551 281.384C403.199 282.013 402.714 282.488 402.095 282.808C401.487 283.128 400.799 283.288 400.031 283.288ZM397.503 272.728V271.32H404.095V272.728H397.503ZM414.682 286.376C414.106 286.376 413.604 286.291 413.178 286.12C412.751 285.96 412.42 285.677 412.186 285.272C411.951 284.867 411.834 284.312 411.834 283.608V282.2H413.274V283.848C413.274 284.2 413.375 284.477 413.578 284.68C413.791 284.883 414.068 284.984 414.41 284.984H416.394V286.376H414.682ZM412.522 283.288C411.476 283.288 410.575 283.101 409.818 282.728C409.06 282.355 408.436 281.864 407.946 281.256C407.455 280.648 407.087 279.997 406.842 279.304C406.607 278.611 406.49 277.944 406.49 277.304V276.952C406.49 276.259 406.612 275.56 406.858 274.856C407.103 274.152 407.476 273.512 407.978 272.936C408.479 272.349 409.103 271.88 409.85 271.528C410.607 271.176 411.498 271 412.522 271C413.546 271 414.431 271.176 415.178 271.528C415.935 271.88 416.564 272.349 417.066 272.936C417.567 273.512 417.94 274.152 418.186 274.856C418.431 275.56 418.554 276.259 418.554 276.952V277.304C418.554 277.944 418.431 278.611 418.186 279.304C417.951 279.997 417.588 280.648 417.098 281.256C416.607 281.864 415.983 282.355 415.226 282.728C414.468 283.101 413.567 283.288 412.522 283.288ZM412.522 281.848C413.204 281.848 413.818 281.72 414.362 281.464C414.916 281.208 415.386 280.861 415.77 280.424C416.154 279.976 416.447 279.475 416.65 278.92C416.852 278.355 416.954 277.763 416.954 277.144C416.954 276.493 416.852 275.885 416.65 275.32C416.447 274.755 416.154 274.259 415.77 273.832C415.386 273.395 414.916 273.053 414.362 272.808C413.818 272.563 413.204 272.44 412.522 272.44C411.839 272.44 411.22 272.563 410.666 272.808C410.122 273.053 409.658 273.395 409.274 273.832C408.89 274.259 408.596 274.755 408.394 275.32C408.191 275.885 408.09 276.493 408.09 277.144C408.09 277.763 408.191 278.355 408.394 278.92C408.596 279.475 408.89 279.976 409.274 280.424C409.658 280.861 410.122 281.208 410.666 281.464C411.22 281.72 411.839 281.848 412.522 281.848ZM419.334 283L423.686 276.76V277.048L419.718 271.32H421.494L424.55 275.8H424.806L427.91 271.32H429.606L425.526 277.112L425.51 276.824L429.926 283H428.15L424.662 278.088H424.406L421.03 283H419.334ZM431.915 283V271.256H433.483V283H431.915ZM439.131 283L435.259 277.8H437.099L441.035 283H439.131ZM432.891 278.776V277.384H436.027C436.517 277.384 436.939 277.283 437.291 277.08C437.643 276.877 437.915 276.6 438.107 276.248C438.299 275.885 438.395 275.475 438.395 275.016C438.395 274.557 438.299 274.152 438.107 273.8C437.915 273.437 437.643 273.155 437.291 272.952C436.939 272.739 436.517 272.632 436.027 272.632H432.891V271.256H435.739C436.592 271.256 437.339 271.384 437.979 271.64C438.619 271.896 439.115 272.291 439.467 272.824C439.819 273.357 439.995 274.045 439.995 274.888V275.144C439.995 275.987 439.813 276.675 439.451 277.208C439.099 277.741 438.603 278.136 437.963 278.392C437.333 278.648 436.592 278.776 435.739 278.776H432.891ZM443.118 283V271.32H445.198L448.654 279.112H448.91L452.35 271.32H454.446V283H452.878V273.032L452.99 273.064L449.678 280.584H447.758L444.43 273.064L444.558 273.032V283H443.118ZM461.197 283.288C460.301 283.288 459.543 283.107 458.925 282.744C458.306 282.371 457.837 281.885 457.517 281.288C457.197 280.691 457.037 280.056 457.037 279.384H458.541C458.541 279.875 458.647 280.312 458.861 280.696C459.085 281.08 459.394 281.384 459.789 281.608C460.183 281.832 460.653 281.944 461.197 281.944C461.73 281.944 462.194 281.837 462.589 281.624C462.994 281.4 463.309 281.096 463.533 280.712C463.757 280.317 463.869 279.875 463.869 279.384C463.869 278.893 463.757 278.451 463.533 278.056C463.319 277.661 463.01 277.347 462.605 277.112C462.21 276.877 461.741 276.76 461.197 276.76C460.802 276.76 460.402 276.829 459.997 276.968C459.591 277.096 459.266 277.283 459.021 277.528H457.613L458.205 271.32H464.333V272.632H459.101L459.485 272.104L459.037 276.632L458.621 276.488C458.93 276.179 459.303 275.933 459.741 275.752C460.189 275.571 460.695 275.48 461.261 275.48C462.157 275.48 462.909 275.667 463.517 276.04C464.125 276.403 464.583 276.877 464.893 277.464C465.213 278.04 465.373 278.643 465.373 279.272V279.496C465.373 280.125 465.213 280.733 464.893 281.32C464.573 281.896 464.098 282.371 463.469 282.744C462.85 283.107 462.093 283.288 461.197 283.288ZM470.893 283.288C470.019 283.288 469.277 283.117 468.669 282.776C468.061 282.435 467.597 281.981 467.277 281.416C466.968 280.851 466.813 280.237 466.813 279.576H468.317C468.317 280.301 468.547 280.877 469.005 281.304C469.475 281.731 470.104 281.944 470.893 281.944C471.416 281.944 471.869 281.848 472.253 281.656C472.637 281.464 472.936 281.192 473.149 280.84C473.363 280.477 473.469 280.056 473.469 279.576C473.469 278.851 473.235 278.264 472.765 277.816C472.307 277.368 471.688 277.144 470.909 277.144C470.579 277.144 470.291 277.187 470.045 277.272C469.811 277.347 469.603 277.443 469.421 277.56L468.653 276.184L473.117 272.92L472.957 272.632H467.277V271.32H474.397V273.448L470.701 276.136L469.581 276.184C469.763 276.12 469.96 276.067 470.173 276.024C470.397 275.981 470.659 275.96 470.957 275.96C471.811 275.96 472.536 276.12 473.133 276.44C473.731 276.76 474.184 277.187 474.493 277.72C474.813 278.253 474.973 278.835 474.973 279.464V279.688C474.973 280.307 474.813 280.893 474.493 281.448C474.184 281.992 473.725 282.435 473.117 282.776C472.52 283.117 471.779 283.288 470.893 283.288ZM476.706 280.232V278.344L481.554 271.032L482.626 271.88L478.098 278.728L478.242 279.016H485.794V280.232H476.706ZM482.802 283V274.728H484.242V283H482.802ZM488.283 283L490.091 271.32H491.467L489.659 283H488.283ZM492.027 283L493.835 271.32H495.211L493.403 283H492.027ZM486.779 279.656V278.536H496.123V279.656H486.779ZM487.355 275.784V274.664H496.699V275.784H487.355ZM502.865 283.32C502.012 283.32 501.297 283.171 500.721 282.872C500.156 282.573 499.703 282.168 499.361 281.656C499.031 281.133 498.791 280.536 498.641 279.864C498.503 279.192 498.433 278.488 498.433 277.752V276.984C498.433 275.139 498.892 273.72 499.809 272.728C500.727 271.725 502.055 271.224 503.793 271.224C504.209 271.224 504.561 271.235 504.849 271.256C505.137 271.277 505.452 271.309 505.793 271.352V272.664C505.441 272.621 505.116 272.589 504.817 272.568C504.519 272.547 504.156 272.536 503.729 272.536C502.759 272.536 501.991 272.717 501.425 273.08C500.86 273.443 500.455 273.965 500.209 274.648C499.964 275.32 499.841 276.136 499.841 277.096V277.816L499.457 279.24C499.468 278.397 499.628 277.699 499.937 277.144C500.257 276.589 500.689 276.173 501.233 275.896C501.788 275.619 502.423 275.48 503.137 275.48C503.969 275.48 504.673 275.651 505.249 275.992C505.825 276.323 506.257 276.781 506.545 277.368C506.844 277.955 506.993 278.621 506.993 279.368C506.993 280.125 506.839 280.803 506.529 281.4C506.22 281.997 505.756 282.467 505.137 282.808C504.529 283.149 503.772 283.32 502.865 283.32ZM502.865 281.976C503.452 281.976 503.943 281.864 504.337 281.64C504.732 281.416 505.025 281.112 505.217 280.728C505.42 280.333 505.521 279.88 505.521 279.368C505.521 278.856 505.425 278.403 505.233 278.008C505.041 277.613 504.753 277.309 504.369 277.096C503.996 276.872 503.532 276.76 502.977 276.76C502.433 276.76 501.943 276.861 501.505 277.064C501.079 277.267 500.743 277.565 500.497 277.96C500.252 278.344 500.129 278.819 500.129 279.384C500.129 279.853 500.225 280.285 500.417 280.68C500.609 281.075 500.908 281.389 501.313 281.624C501.719 281.859 502.236 281.976 502.865 281.976ZM512.916 283.288C512.084 283.288 511.343 283.139 510.692 282.84C510.052 282.541 509.545 282.125 509.172 281.592C508.809 281.059 508.628 280.44 508.628 279.736C508.628 279.267 508.719 278.845 508.9 278.472C509.081 278.088 509.332 277.757 509.652 277.48C509.972 277.203 510.335 276.989 510.74 276.84V276.68C510.42 276.541 510.127 276.355 509.86 276.12C509.604 275.885 509.396 275.608 509.236 275.288C509.087 274.968 509.012 274.605 509.012 274.2C509.012 273.528 509.188 272.957 509.54 272.488C509.903 272.019 510.377 271.661 510.964 271.416C511.561 271.16 512.212 271.032 512.916 271.032C513.631 271.032 514.281 271.16 514.868 271.416C515.465 271.661 515.94 272.019 516.292 272.488C516.644 272.957 516.82 273.528 516.82 274.2C516.82 274.605 516.745 274.968 516.596 275.288C516.447 275.608 516.239 275.885 515.972 276.12C515.716 276.355 515.423 276.541 515.092 276.68V276.84C515.508 276.989 515.876 277.208 516.196 277.496C516.516 277.773 516.767 278.104 516.948 278.488C517.129 278.861 517.22 279.277 517.22 279.736C517.22 280.44 517.033 281.059 516.66 281.592C516.297 282.125 515.791 282.541 515.14 282.84C514.5 283.139 513.759 283.288 512.916 283.288ZM512.916 281.976C513.503 281.976 514.004 281.885 514.42 281.704C514.836 281.512 515.156 281.245 515.38 280.904C515.604 280.552 515.716 280.141 515.716 279.672C515.716 279.203 515.604 278.797 515.38 278.456C515.167 278.115 514.852 277.853 514.436 277.672C514.02 277.48 513.513 277.384 512.916 277.384C512.329 277.384 511.828 277.48 511.412 277.672C510.996 277.853 510.676 278.115 510.452 278.456C510.239 278.797 510.132 279.203 510.132 279.672C510.132 280.141 510.239 280.552 510.452 280.904C510.676 281.245 510.996 281.512 511.412 281.704C511.828 281.885 512.329 281.976 512.916 281.976ZM512.916 276.168C513.641 276.168 514.223 276.013 514.66 275.704C515.097 275.384 515.316 274.899 515.316 274.248C515.316 273.587 515.092 273.107 514.644 272.808C514.207 272.499 513.631 272.344 512.916 272.344C512.201 272.344 511.62 272.499 511.172 272.808C510.735 273.117 510.516 273.597 510.516 274.248C510.516 274.899 510.735 275.384 511.172 275.704C511.62 276.013 512.201 276.168 512.916 276.168Z" fill="black"/>
<defs>
<filter id="filter0_bd_361_1896" x="-17" y="-21" width="735" height="561" filterUnits="userSpaceOnUse" color-interpolation-filters="sRGB">
<feFlood flood-opacity="0" result="BackgroundImageFix"/>
<feGaussianBlur in="BackgroundImageFix" stdDeviation="20"/>
<feComposite in2="SourceAlpha" operator="in" result="effect1_backgroundBlur_361_1896"/>
<feColorMatrix in="SourceAlpha" type="matrix" values="0 0 0 0 0 0 0 0 0 0 0 0 0 0 0 0 0 0 127 0" result="hardAlpha"/>
<feMorphology radius="1" operator="erode" in="SourceAlpha" result="effect2_dropShadow_361_1896"/>
<feOffset dy="4"/>
<feGaussianBlur stdDeviation="12"/>
<feComposite in2="hardAlpha" operator="out"/>
<feColorMatrix type="matrix" values="0 0 0 0 0 0 0 0 0 0 0 0 0 0 0 0 0 0 0.07 0"/>
<feBlend mode="normal" in2="effect1_backgroundBlur_361_1896" result="effect2_dropShadow_361_1896"/>
<feBlend mode="normal" in="SourceGraphic" in2="effect2_dropShadow_361_1896" result="shape"/>
</filter>
<filter id="filter1_d_361_1896" x="40" y="201" width="621" height="156" filterUnits="userSpaceOnUse" color-interpolation-filters="sRGB">
<feFlood flood-opacity="0" result="BackgroundImageFix"/>
<feColorMatrix in="SourceAlpha" type="matrix" values="0 0 0 0 0 0 0 0 0 0 0 0 0 0 0 0 0 0 127 0" result="hardAlpha"/>
<feMorphology radius="7" operator="dilate" in="SourceAlpha" result="effect1_dropShadow_361_1896"/>
<feOffset dy="4"/>
<feGaussianBlur stdDeviation="12"/>
<feComposite in2="hardAlpha" operator="out"/>
<feColorMatrix type="matrix" values="0 0 0 0 0 0 0 0 0 0 0 0 0 0 0 0 0 0 0.04 0"/>
<feBlend mode="normal" in2="BackgroundImageFix" result="effect1_dropShadow_361_1896"/>
<feBlend mode="normal" in="SourceGraphic" in2="effect1_dropShadow_361_1896" result="shape"/>
</filter>
<linearGradient id="paint0_linear_361_1896" x1="350.5" y1="19" x2="350.5" y2="500" gradientUnits="userSpaceOnUse">
<stop stop-color="white" stop-opacity="0.6"/>
<stop offset="1" stop-color="white" stop-opacity="0.3"/>
</linearGradient>
<linearGradient id="paint1_linear_361_1896" x1="46" y1="46.5" x2="638" y2="484" gradientUnits="userSpaceOnUse">
<stop stop-color="#3060BC"/>
<stop offset="0.414832" stop-color="#8BABE7" stop-opacity="0.585168"/>
<stop offset="0.814458" stop-color="#223E75" stop-opacity="0.185542"/>
<stop offset="1" stop-color="#041D4B" stop-opacity="0"/>
</linearGradient>
</defs>
</svg>
