<svg width="107" height="107" viewBox="0 0 107 107" fill="none" xmlns="http://www.w3.org/2000/svg">
<path d="M53.5 107C23.952 107 0 83.048 0 53.5C0 23.952 23.952 0 53.5 0C83.048 0 107 23.952 107 53.5C107 83.048 83.048 107 53.5 107ZM53.5 96.3C64.8513 96.3 75.7376 91.7907 83.7642 83.7642C91.7907 75.7376 96.3 64.8513 96.3 53.5C96.3 42.1487 91.7907 31.2624 83.7642 23.2358C75.7376 15.2093 64.8513 10.7 53.5 10.7C42.1487 10.7 31.2624 15.2093 23.2358 23.2358C15.2093 31.2624 10.7 42.1487 10.7 53.5C10.7 64.8513 15.2093 75.7376 23.2358 83.7642C31.2624 91.7907 42.1487 96.3 53.5 96.3ZM34.775 64.2H64.2C64.9095 64.2 65.5899 63.9182 66.0915 63.4165C66.5932 62.9149 66.875 62.2345 66.875 61.525C66.875 60.8155 66.5932 60.1351 66.0915 59.6335C65.5899 59.1318 64.9095 58.85 64.2 58.85H42.8C39.2527 58.85 35.8507 57.4409 33.3424 54.9326C30.8341 52.4243 29.425 49.0223 29.425 45.475C29.425 41.9277 30.8341 38.5257 33.3424 36.0174C35.8507 33.5091 39.2527 32.1 42.8 32.1H48.15V21.4H58.85V32.1H72.225V42.8H42.8C42.0905 42.8 41.4101 43.0818 40.9085 43.5835C40.4068 44.0851 40.125 44.7655 40.125 45.475C40.125 46.1845 40.4068 46.8649 40.9085 47.3665C41.4101 47.8682 42.0905 48.15 42.8 48.15H64.2C67.7473 48.15 71.1493 49.5591 73.6576 52.0674C76.1659 54.5757 77.575 57.9777 77.575 61.525C77.575 65.0723 76.1659 68.4743 73.6576 70.9826C71.1493 73.4909 67.7473 74.9 64.2 74.9H58.85V85.6H48.15V74.9H34.775V64.2Z" fill="#6197FF"/>
</svg>
