<svg width="108" height="109" viewBox="0 0 108 109" fill="none" xmlns="http://www.w3.org/2000/svg">
<path d="M50.7998 92.125L73.9998 46.4375H57.9998V16.875L33.9998 62.5625H50.7998V92.125ZM53.9998 108.25C46.6221 108.25 39.6887 106.838 33.1998 104.015C26.7109 101.194 21.0665 97.3656 16.2665 92.5281C11.4665 87.6906 7.66739 82.0021 4.86917 75.4625C2.06739 68.9229 0.666504 61.9354 0.666504 54.5C0.666504 47.0646 2.06739 40.0771 4.86917 33.5375C7.66739 26.9979 11.4665 21.3094 16.2665 16.4719C21.0665 11.6344 26.7109 7.80379 33.1998 4.98013C39.6887 2.16004 46.6221 0.75 53.9998 0.75C61.3776 0.75 68.3109 2.16004 74.7998 4.98013C81.2887 7.80379 86.9332 11.6344 91.7332 16.4719C96.5332 21.3094 100.332 26.9979 103.13 33.5375C105.932 40.0771 107.333 47.0646 107.333 54.5C107.333 61.9354 105.932 68.9229 103.13 75.4625C100.332 82.0021 96.5332 87.6906 91.7332 92.5281C86.9332 97.3656 81.2887 101.194 74.7998 104.015C68.3109 106.838 61.3776 108.25 53.9998 108.25ZM53.9998 97.5C65.9109 97.5 75.9998 93.3344 84.2665 85.0031C92.5332 76.6719 96.6665 66.5042 96.6665 54.5C96.6665 42.4958 92.5332 32.3281 84.2665 23.9969C75.9998 15.6656 65.9109 11.5 53.9998 11.5C42.0887 11.5 31.9998 15.6656 23.7332 23.9969C15.4665 32.3281 11.3332 42.4958 11.3332 54.5C11.3332 66.5042 15.4665 76.6719 23.7332 85.0031C31.9998 93.3344 42.0887 97.5 53.9998 97.5Z" fill="#6197FF"/>
</svg>
